<svg width="9" height="12" viewBox="0 0 9 12" fill="none" xmlns="http://www.w3.org/2000/svg">
<path d="M0.761625 12V10.56L4.66563 6.576C5.61496 5.62667 6.08963 4.80533 6.08963 4.112C6.08963 3.568 5.92429 3.14667 5.59363 2.848C5.27363 2.53867 4.86296 2.384 4.36163 2.384C3.42296 2.384 2.72963 2.848 2.28163 3.776L0.729625 2.864C1.08163 2.11733 1.57763 1.552 2.21763 1.168C2.85763 0.783999 3.56696 0.591999 4.34563 0.591999C5.32696 0.591999 6.16963 0.901333 6.87363 1.52C7.57763 2.13867 7.92963 2.98133 7.92963 4.048C7.92963 5.18933 7.29496 6.40533 6.02563 7.696L3.49763 10.224H8.13763V12H0.761625Z" fill="#FB3099"/>
</svg>
