<svg width="9" height="13" viewBox="0 0 9 13" fill="none" xmlns="http://www.w3.org/2000/svg">
<path d="M5.52369 5.376C6.33435 5.568 6.99035 5.94667 7.49169 6.512C8.00369 7.06667 8.25969 7.76533 8.25969 8.608C8.25969 9.728 7.88102 10.608 7.12369 11.248C6.36635 11.888 5.43835 12.208 4.33969 12.208C3.48635 12.208 2.71835 12.0107 2.03569 11.616C1.36369 11.2213 0.878354 10.6453 0.579688 9.888L2.14769 8.976C2.47835 9.936 3.20902 10.416 4.33969 10.416C4.97969 10.416 5.48635 10.256 5.85969 9.936C6.23302 9.60533 6.41969 9.16267 6.41969 8.608C6.41969 8.05333 6.23302 7.616 5.85969 7.296C5.48635 6.976 4.97969 6.816 4.33969 6.816H3.92369L3.18769 5.712L5.60369 2.528H0.915688V0.799999H7.79569V2.368L5.52369 5.376Z" fill="#FB3099"/>
</svg>
