<svg width="9" height="13" viewBox="0 0 9 13" fill="none" xmlns="http://www.w3.org/2000/svg">
<path d="M4.54063 5.024C5.60729 5.024 6.50863 5.344 7.24463 5.984C7.98063 6.61333 8.34863 7.488 8.34863 8.608C8.34863 9.728 7.96996 10.608 7.21263 11.248C6.45529 11.888 5.52729 12.208 4.42863 12.208C3.54329 12.208 2.75929 12.0053 2.07663 11.6C1.39396 11.184 0.908625 10.5867 0.620625 9.808L2.20463 8.896C2.50329 9.90933 3.24463 10.416 4.42863 10.416C5.05796 10.416 5.55929 10.256 5.93263 9.936C6.31663 9.60533 6.50863 9.16267 6.50863 8.608C6.50863 8.05333 6.32196 7.616 5.94863 7.296C5.57529 6.976 5.07929 6.816 4.46063 6.816H1.19662L1.62863 0.799999H7.86863V2.528H3.32463L3.13263 5.024H4.54063Z" fill="#FB3099"/>
</svg>
