<svg width="53" height="64" viewBox="0 0 53 64" fill="none" xmlns="http://www.w3.org/2000/svg">
<path d="M48.7504 5.75005H45.0004V3.75003C45.0004 1.68227 43.3181 0 41.2504 0H11.2501C9.18233 0 7.50007 1.68227 7.50007 3.75003V5.75005H3.75003C1.68227 5.75005 0 7.43232 0 9.50009C0 17.6323 3.80528 23.6086 9.97859 25.2725C12.0949 29.9306 15.4409 33.8906 19.6879 36.752C20.6662 37.4111 21.2502 38.5395 21.2502 39.7704V46.6578C20.3933 46.8775 19.6072 47.3231 18.965 47.9653C18.0204 48.9101 17.5002 50.1655 17.5002 51.5005H16.2501C14.1824 51.5005 12.5001 53.1827 12.5001 55.2505V62.7506C12.5001 63.4409 13.0599 64.0006 13.7501 64.0006H38.7504C39.4406 64.0006 40.0004 63.4409 40.0004 62.7506V55.2505C40.0004 53.1827 38.3181 51.5005 36.2503 51.5005H35.0003C35.0003 49.1749 33.4044 47.2151 31.2503 46.6587V39.7766C31.2503 38.5417 31.8347 37.4112 32.8138 36.7521C37.0612 33.8904 40.4072 29.9304 42.5234 25.2721C48.6958 23.6076 52.5005 17.6317 52.5005 9.50009C52.5005 7.43232 50.8182 5.75005 48.7504 5.75005ZM2.50002 9.50009C2.50002 8.81083 3.06078 8.25007 3.75003 8.25007H7.50007V13.8376C7.50007 16.687 7.9317 19.4773 8.78383 22.1644C4.80592 20.1941 2.50002 15.6434 2.50002 9.50009ZM36.2503 54.0005C36.9396 54.0005 37.5003 54.5612 37.5003 55.2505V61.5006H15.0001V55.2505C15.0001 54.5612 15.5609 54.0005 16.2501 54.0005H36.2503ZM42.5004 13.8376C42.5004 17.2522 41.8206 20.5747 40.4796 23.7127C38.5721 28.1774 35.4383 31.9693 31.4173 34.6784C29.7473 35.8026 28.7503 37.7085 28.7503 39.7766V47.7504C28.7503 48.4408 29.31 49.0004 30.0003 49.0004C31.3788 49.0004 32.5003 50.122 32.5003 51.5005H20.0002C20.0002 50.8332 20.2604 50.2056 20.7328 49.7331C21.1821 49.2838 21.7717 49.0266 22.4022 49.0023C22.4346 49.0048 22.4672 49.0061 22.5001 49.0061C23.1903 49.0061 23.7501 48.4408 23.7501 47.7504V39.7704C23.7501 37.7066 22.7537 35.8032 21.0848 34.6787C17.0634 31.9694 13.9296 28.1775 12.0219 23.7125C10.6803 20.5756 10.0001 17.2532 10.0001 13.8376V3.75003C10.0001 3.06078 10.5608 2.50002 11.2501 2.50002H41.2504C41.9396 2.50002 42.5004 3.06078 42.5004 3.75003V13.8376ZM43.7171 22.1642C44.5689 19.4764 45.0004 16.6863 45.0004 13.8376V8.25007H48.7504C49.4397 8.25007 50.0005 8.81083 50.0005 9.50009C50.0005 15.643 47.6948 20.1936 43.7171 22.1642Z" fill="#FB3099"/>
</svg>
