<svg width="21" height="21" viewBox="0 0 21 21" fill="none" xmlns="http://www.w3.org/2000/svg">
<path fill-rule="evenodd" clip-rule="evenodd" d="M10.5 0C4.70137 0 0 4.70137 0 10.5C0 16.2986 4.70137 21 10.5 21C16.2986 21 21 16.2986 21 10.5C21 4.70137 16.2986 0 10.5 0ZM15.3638 7.5955L10.3343 15.2828C10.333 15.2841 10.3303 15.2854 10.3303 15.2867C10.3041 15.3261 10.2897 15.3707 10.2568 15.4075C10.2109 15.4574 10.1518 15.4836 10.0994 15.5217C10.0862 15.5309 10.0731 15.5414 10.0587 15.5506C9.97729 15.6017 9.89329 15.6359 9.80141 15.6582C9.77122 15.6661 9.74366 15.6739 9.71216 15.6792C9.63906 15.6892 9.56499 15.6901 9.49166 15.6818C9.43987 15.6785 9.38848 15.6706 9.3381 15.6582C9.28612 15.6425 9.23561 15.6223 9.18716 15.5978C9.14516 15.5781 9.10054 15.5729 9.06116 15.5479C9.03229 15.5296 9.01654 15.5007 8.9916 15.4784C8.9811 15.4692 8.96797 15.4666 8.95747 15.4574L6.02929 12.7497C5.65652 12.4054 5.6336 11.8242 5.97798 11.4515C6.32236 11.0789 6.90362 11.0559 7.27628 11.4003L9.39585 13.3613L13.8255 6.59012C14.1032 6.16535 14.6726 6.04606 15.0973 6.32369C15.5221 6.60131 15.6414 7.17072 15.3638 7.5955V7.5955Z" fill="white"/>
</svg>
