<?xml version="1.0" standalone="no"?>
<!DOCTYPE svg PUBLIC "-//W3C//DTD SVG 20010904//EN"
 "http://www.w3.org/TR/2001/REC-SVG-20010904/DTD/svg10.dtd">
<svg version="1.0" xmlns="http://www.w3.org/2000/svg"
 width="256.000000pt" height="256.000000pt" viewBox="0 0 256.000000 256.000000"
 preserveAspectRatio="xMidYMid meet">
<metadata>
Created by potrace 1.14, written by Peter Selinger 2001-2017
</metadata>
<g transform="translate(0.000000,256.000000) scale(0.100000,-0.100000)"
fill="#000000" stroke="none">
<path d="M220 2553 c-40 -14 -134 -149 -173 -246 -93 -233 -41 -515 128 -699
41 -44 67 -54 104 -38 60 25 60 80 0 149 -103 116 -148 284 -119 442 13 69 79
203 123 249 41 43 50 75 32 110 -19 37 -52 48 -95 33z"/>
<path d="M2263 2543 c-43 -39 -37 -78 23 -145 43 -48 88 -138 108 -213 15 -59
16 -184 2 -250 -12 -54 -72 -169 -112 -214 -45 -50 -57 -83 -42 -116 11 -24
47 -45 78 -45 45 0 161 160 201 279 32 94 32 94 33 226 1 100 -3 131 -22 189
-30 89 -61 150 -108 212 -71 93 -117 115 -161 77z"/>
<path d="M440 2343 c-25 -10 -61 -46 -86 -89 -80 -136 -64 -324 37 -437 36
-39 71 -51 104 -34 50 26 57 67 19 118 -83 111 -83 208 0 318 14 19 26 44 26
55 -1 44 -60 84 -100 69z"/>
<path d="M2060 2337 c-14 -7 -28 -26 -34 -45 -8 -28 -6 -37 13 -60 12 -15 33
-49 46 -77 40 -81 32 -150 -30 -239 -44 -64 -40 -108 10 -133 65 -33 153 60
185 196 27 116 -16 270 -96 340 -38 34 -56 37 -94 18z"/>
<path d="M1160 2231 c-141 -45 -228 -128 -280 -266 -19 -51 -23 -82 -25 -210
l-2 -150 -139 -2 c-76 -2 -149 -5 -160 -8 -43 -10 -51 -55 -49 -260 3 -214 6
-244 36 -341 83 -269 333 -492 596 -530 26 -3 53 -10 58 -14 8 -7 13 -225 6
-287 -1 -10 -29 -13 -105 -13 -87 0 -108 -3 -127 -19 -32 -26 -32 -86 0 -112
21 -18 45 -19 311 -19 266 0 290 1 311 19 32 26 32 86 0 112 -19 16 -40 19
-127 19 -57 0 -105 3 -105 8 -1 4 -2 69 -3 145 -1 141 1 149 39 154 99 15 244
73 327 132 150 104 261 265 310 450 16 62 20 113 22 281 2 113 -1 217 -6 231
-14 42 -42 49 -198 51 l-145 3 -1 130 c0 72 -4 150 -8 175 -19 103 -103 224
-193 276 -105 62 -237 79 -343 45z m206 -147 c91 -31 148 -92 176 -190 11 -38
14 -124 13 -389 -1 -321 -3 -343 -22 -387 -45 -101 -150 -168 -263 -168 -62 0
-159 48 -199 99 -64 81 -66 91 -65 466 0 187 3 356 7 376 15 77 101 169 182
196 49 16 119 15 171 -3z m-511 -769 c1 -71 5 -150 9 -175 12 -66 51 -142 102
-199 185 -205 521 -178 669 53 55 87 68 144 71 301 1 77 3 143 3 148 2 13 188
8 193 -5 10 -27 0 -296 -12 -348 -16 -74 -80 -205 -127 -260 -184 -223 -499
-291 -758 -164 -64 31 -147 93 -184 137 -14 16 -30 35 -37 42 -26 26 -86 146
-105 212 -16 53 -21 103 -23 223 -2 85 -1 159 1 163 3 4 48 6 101 5 l97 -3 0
-130z"/>
<path d="M643 2125 c-82 -35 -28 -164 56 -133 66 24 68 102 4 136 -26 14 -20
14 -60 -3z"/>
<path d="M1855 2128 c-65 -37 -58 -117 12 -137 71 -21 125 69 71 119 -12 11
-25 20 -29 20 -4 0 -13 2 -21 5 -7 2 -22 -1 -33 -7z"/>
</g>
</svg>
